Coordinates
version=1
nRows=38
nColumns=12
inDegrees=yes

Units are S.I. units (second, meters, Newtons, ...)
Angles are in degrees

endheader
time	SC_y	SC_z	SC_x	AC_y	AC_z	AC_x	GH_y	GH_z	GH_yy	EL_x	PS_y
       0.0              -26.53          36.83          63.84          60.25          4.979          -17.4          158.3        -0.0414         -48.28          74.49          33.58
   0.00255              -26.53          36.83          63.83          60.25          4.976          -17.4          158.2       -0.03592         -48.27           74.5          33.58
  0.005101              -26.53          36.82          63.82          60.25          4.972          -17.4          158.2        -0.0301         -48.26          74.51          33.59
  0.007651              -26.53          36.82          63.81          60.24          4.968          -17.4          158.2       -0.02392         -48.25          74.52          33.59
    0.0102              -26.54          36.81           63.8          60.24          4.965          -17.4          158.1       -0.01733         -48.24          74.53           33.6
   0.01275              -26.54          36.81          63.79          60.24          4.961         -17.39          158.1       -0.01031         -48.23          74.54          33.61
    0.0153              -26.54           36.8          63.78          60.23          4.956         -17.39          158.0       -0.00281         -48.22          74.56          33.61
   0.01785              -26.54           36.8          63.77          60.23          4.951         -17.39          158.0       0.005208         -48.21          74.57          33.62
    0.0204              -26.54          36.79          63.76          60.22          4.946         -17.39          157.9        0.01379         -48.19          74.58          33.63
   0.02295              -26.55          36.78          63.75          60.22          4.941         -17.39          157.9          0.023         -48.18           74.6          33.64
    0.0255              -26.55          36.77          63.73          60.21          4.935         -17.39          157.8        0.03289         -48.16          74.62          33.64
   0.02805              -26.55          36.77          63.72          60.21          4.929         -17.39          157.7        0.04354         -48.15          74.64          33.65
    0.0306              -26.56          36.76           63.7           60.2          4.922         -17.38          157.6        0.05502         -48.13          74.66          33.66
   0.03316              -26.56          36.75          63.68          60.19          4.915         -17.38          157.6        0.06741         -48.11          74.68          33.68
   0.03571              -26.56          36.74          63.67          60.19          4.907         -17.38          157.5        0.08083         -48.09           74.7          33.69
   0.03826              -26.57          36.73          63.64          60.18          4.899         -17.38          157.4        0.09538         -48.07          74.73           33.7
   0.04081              -26.57          36.71          63.62          60.17          4.889         -17.38          157.3         0.1112         -48.04          74.75          33.71
   0.04336              -26.58           36.7           63.6          60.16          4.879         -17.37          157.2         0.1284         -48.02          74.78          33.73
   0.04591              -26.58          36.69          63.57          60.15          4.868         -17.37          157.0         0.1472         -47.99          74.82          33.75
   0.04846              -26.59          36.67          63.54          60.14          4.856         -17.37          156.9         0.1678         -47.95          74.85          33.77
   0.05101               -26.6          36.65          63.51          60.12          4.843         -17.36          156.8         0.1904         -47.92          74.89          33.79
   0.05356               -26.6          36.63          63.48          60.11          4.828         -17.36          156.6         0.2153         -47.88          74.93          33.81
   0.05611              -26.61          36.61          63.44          60.09          4.812         -17.36          156.4         0.2428         -47.84          74.98          33.83
   0.05866              -26.62          36.59          63.39          60.08          4.794         -17.35          156.2         0.2733         -47.79          75.03          33.86
   0.06121              -26.63          36.56          63.35          60.06          4.775         -17.35          156.0         0.3071         -47.74          75.09          33.89
   0.06376              -26.64          36.54          63.29          60.04          4.753         -17.34          155.8         0.3449         -47.68          75.16          33.92
   0.06631              -26.65           36.5          63.23          60.01          4.728         -17.33          155.5         0.3872         -47.62          75.23          33.96
   0.06886              -26.67          36.47          63.17          59.99            4.7         -17.33          155.2         0.4348         -47.54          75.31           34.0
   0.07141              -26.68          36.43          63.09          59.96          4.668         -17.32          154.8         0.4886         -47.46          75.41          34.05
   0.07396               -26.7          36.38          63.01          59.92          4.633         -17.31          154.4         0.5497         -47.37          75.51          34.11
   0.07651              -26.72          36.33          62.91          59.88          4.592          -17.3          154.0         0.6194         -47.26          75.64          34.17
   0.07906              -26.74          36.26           62.8          59.84          4.545         -17.29          153.5         0.6994         -47.13          75.77          34.24
   0.08161              -26.77          36.19          62.67          59.78          4.491         -17.27          152.9         0.7918         -46.99          75.93          34.32
   0.08416               -26.8          36.11          62.51          59.72          4.428         -17.25          152.2         0.8991         -46.83          76.12          34.42
   0.08671              -26.84          36.02          62.34          59.65          4.355         -17.24          151.4          1.025         -46.63          76.34          34.53
   0.08926              -26.88           35.9          62.13          59.57          4.268         -17.21          150.4          1.173          -46.4          76.59          34.66
   0.09181              -26.93          35.77          61.88          59.47          4.165         -17.19          149.3          1.349         -46.13           76.9          34.82
   0.09437              -26.99          35.61          61.59          59.35          4.041         -17.15          147.9           1.56         -45.81          77.27          35.01
